<svg xmlns="http://www.w3.org/2000/svg" width="97.935" height="69" viewBox="0 0 97.935 69">
  <path id="youtube_logo" data-name="youtube_logo" d="M103.889,44.775A12.305,12.305,0,0,0,95.23,36.06C87.593,34,56.968,34,56.968,34s-30.625,0-38.263,2.06a12.305,12.305,0,0,0-8.658,8.715C8,52.461,8,68.5,8,68.5s0,16.039,2.047,23.725a12.305,12.305,0,0,0,8.658,8.715C26.342,103,56.968,103,56.968,103s30.625,0,38.263-2.06a12.305,12.305,0,0,0,8.658-8.715c2.047-7.687,2.047-23.725,2.047-23.725S105.935,52.461,103.889,44.775ZM46.952,83.062V53.938L72.548,68.5Z" transform="translate(-8 -34)" fill="#fef4f4"/>
</svg>
